<?xml version="1.0" standalone="yes"?><svg xmlns="http://www.w3.org/2000/svg" version="1.1" width="344" height="344" viewBox="0 0 344 344" shape-rendering="crispEdges"><rect x="0" y="0" width="344" height="344" fill="white"/><path fill="black" d="M40 40h8v8H40V40M48 40h8v8H48V40M56 40h8v8H56V40M64 40h8v8H64V40M72 40h8v8H72V40M80 40h8v8H80V40M88 40h8v8H88V40M112 40h8v8H112V40M128 40h8v8H128V40M152 40h8v8H152V40M184 40h8v8H184V40M216 40h8v8H216V40M248 40h8v8H248V40M256 40h8v8H256V40M264 40h8v8H264V40M272 40h8v8H272V40M280 40h8v8H280V40M288 40h8v8H288V40M296 40h8v8H296V40M40 48h8v8H40V48M88 48h8v8H88V48M104 48h8v8H104V48M120 48h8v8H120V48M128 48h8v8H128V48M144 48h8v8H144V48M152 48h8v8H152V48M168 48h8v8H168V48M176 48h8v8H176V48M200 48h8v8H200V48M208 48h8v8H208V48M216 48h8v8H216V48M248 48h8v8H248V48M296 48h8v8H296V48M40 56h8v8H40V56M56 56h8v8H56V56M64 56h8v8H64V56M72 56h8v8H72V56M88 56h8v8H88V56M104 56h8v8H104V56M120 56h8v8H120V56M128 56h8v8H128V56M144 56h8v8H144V56M160 56h8v8H160V56M168 56h8v8H168V56M176 56h8v8H176V56M184 56h8v8H184V56M192 56h8v8H192V56M232 56h8v8H232V56M248 56h8v8H248V56M264 56h8v8H264V56M272 56h8v8H272V56M280 56h8v8H280V56M296 56h8v8H296V56M40 64h8v8H40V64M56 64h8v8H56V64M64 64h8v8H64V64M72 64h8v8H72V64M88 64h8v8H88V64M104 64h8v8H104V64M112 64h8v8H112V64M120 64h8v8H120V64M128 64h8v8H128V64M136 64h8v8H136V64M224 64h8v8H224V64M232 64h8v8H232V64M248 64h8v8H248V64M264 64h8v8H264V64M272 64h8v8H272V64M280 64h8v8H280V64M296 64h8v8H296V64M40 72h8v8H40V72M56 72h8v8H56V72M64 72h8v8H64V72M72 72h8v8H72V72M88 72h8v8H88V72M112 72h8v8H112V72M120 72h8v8H120V72M144 72h8v8H144V72M160 72h8v8H160V72M176 72h8v8H176V72M184 72h8v8H184V72M232 72h8v8H232V72M248 72h8v8H248V72M264 72h8v8H264V72M272 72h8v8H272V72M280 72h8v8H280V72M296 72h8v8H296V72M40 80h8v8H40V80M88 80h8v8H88V80M120 80h8v8H120V80M128 80h8v8H128V80M168 80h8v8H168V80M176 80h8v8H176V80M200 80h8v8H200V80M208 80h8v8H208V80M216 80h8v8H216V80M232 80h8v8H232V80M248 80h8v8H248V80M296 80h8v8H296V80M40 88h8v8H40V88M48 88h8v8H48V88M56 88h8v8H56V88M64 88h8v8H64V88M72 88h8v8H72V88M80 88h8v8H80V88M88 88h8v8H88V88M104 88h8v8H104V88M120 88h8v8H120V88M136 88h8v8H136V88M152 88h8v8H152V88M168 88h8v8H168V88M184 88h8v8H184V88M200 88h8v8H200V88M216 88h8v8H216V88M232 88h8v8H232V88M248 88h8v8H248V88M256 88h8v8H256V88M264 88h8v8H264V88M272 88h8v8H272V88M280 88h8v8H280V88M288 88h8v8H288V88M296 88h8v8H296V88M104 96h8v8H104V96M216 96h8v8H216V96M232 96h8v8H232V96M40 104h8v8H40V104M88 104h8v8H88V104M104 104h8v8H104V104M144 104h8v8H144V104M152 104h8v8H152V104M160 104h8v8H160V104M176 104h8v8H176V104M216 104h8v8H216V104M240 104h8v8H240V104M248 104h8v8H248V104M272 104h8v8H272V104M280 104h8v8H280V104M288 104h8v8H288V104M48 112h8v8H48V112M56 112h8v8H56V112M72 112h8v8H72V112M96 112h8v8H96V112M104 112h8v8H104V112M112 112h8v8H112V112M136 112h8v8H136V112M152 112h8v8H152V112M160 112h8v8H160V112M184 112h8v8H184V112M192 112h8v8H192V112M224 112h8v8H224V112M264 112h8v8H264V112M272 112h8v8H272V112M280 112h8v8H280V112M40 120h8v8H40V120M48 120h8v8H48V120M56 120h8v8H56V120M64 120h8v8H64V120M80 120h8v8H80V120M88 120h8v8H88V120M104 120h8v8H104V120M112 120h8v8H112V120M120 120h8v8H120V120M136 120h8v8H136V120M160 120h8v8H160V120M184 120h8v8H184V120M208 120h8v8H208V120M232 120h8v8H232V120M264 120h8v8H264V120M280 120h8v8H280V120M288 120h8v8H288V120M48 128h8v8H48V128M56 128h8v8H56V128M72 128h8v8H72V128M104 128h8v8H104V128M112 128h8v8H112V128M136 128h8v8H136V128M152 128h8v8H152V128M160 128h8v8H160V128M192 128h8v8H192V128M200 128h8v8H200V128M216 128h8v8H216V128M224 128h8v8H224V128M240 128h8v8H240V128M256 128h8v8H256V128M264 128h8v8H264V128M272 128h8v8H272V128M280 128h8v8H280V128M64 136h8v8H64V136M88 136h8v8H88V136M96 136h8v8H96V136M120 136h8v8H120V136M136 136h8v8H136V136M144 136h8v8H144V136M152 136h8v8H152V136M160 136h8v8H160V136M168 136h8v8H168V136M176 136h8v8H176V136M184 136h8v8H184V136M200 136h8v8H200V136M208 136h8v8H208V136M216 136h8v8H216V136M232 136h8v8H232V136M248 136h8v8H248V136M256 136h8v8H256V136M288 136h8v8H288V136M296 136h8v8H296V136M48 144h8v8H48V144M56 144h8v8H56V144M96 144h8v8H96V144M104 144h8v8H104V144M128 144h8v8H128V144M136 144h8v8H136V144M152 144h8v8H152V144M168 144h8v8H168V144M176 144h8v8H176V144M200 144h8v8H200V144M216 144h8v8H216V144M224 144h8v8H224V144M248 144h8v8H248V144M256 144h8v8H256V144M272 144h8v8H272V144M280 144h8v8H280V144M288 144h8v8H288V144M296 144h8v8H296V144M48 152h8v8H48V152M56 152h8v8H56V152M64 152h8v8H64V152M80 152h8v8H80V152M88 152h8v8H88V152M120 152h8v8H120V152M136 152h8v8H136V152M152 152h8v8H152V152M192 152h8v8H192V152M208 152h8v8H208V152M216 152h8v8H216V152M240 152h8v8H240V152M248 152h8v8H248V152M272 152h8v8H272V152M280 152h8v8H280V152M288 152h8v8H288V152M48 160h8v8H48V160M80 160h8v8H80V160M96 160h8v8H96V160M104 160h8v8H104V160M112 160h8v8H112V160M120 160h8v8H120V160M136 160h8v8H136V160M144 160h8v8H144V160M160 160h8v8H160V160M192 160h8v8H192V160M224 160h8v8H224V160M232 160h8v8H232V160M240 160h8v8H240V160M256 160h8v8H256V160M264 160h8v8H264V160M272 160h8v8H272V160M280 160h8v8H280V160M296 160h8v8H296V160M72 168h8v8H72V168M80 168h8v8H80V168M88 168h8v8H88V168M120 168h8v8H120V168M128 168h8v8H128V168M136 168h8v8H136V168M152 168h8v8H152V168M168 168h8v8H168V168M176 168h8v8H176V168M184 168h8v8H184V168M192 168h8v8H192V168M216 168h8v8H216V168M224 168h8v8H224V168M232 168h8v8H232V168M240 168h8v8H240V168M256 168h8v8H256V168M264 168h8v8H264V168M272 168h8v8H272V168M296 168h8v8H296V168M40 176h8v8H40V176M56 176h8v8H56V176M64 176h8v8H64V176M96 176h8v8H96V176M112 176h8v8H112V176M120 176h8v8H120V176M128 176h8v8H128V176M136 176h8v8H136V176M160 176h8v8H160V176M168 176h8v8H168V176M176 176h8v8H176V176M184 176h8v8H184V176M192 176h8v8H192V176M208 176h8v8H208V176M216 176h8v8H216V176M224 176h8v8H224V176M232 176h8v8H232V176M240 176h8v8H240V176M248 176h8v8H248V176M272 176h8v8H272V176M280 176h8v8H280V176M288 176h8v8H288V176M296 176h8v8H296V176M56 184h8v8H56V184M64 184h8v8H64V184M80 184h8v8H80V184M88 184h8v8H88V184M96 184h8v8H96V184M112 184h8v8H112V184M144 184h8v8H144V184M152 184h8v8H152V184M160 184h8v8H160V184M192 184h8v8H192V184M224 184h8v8H224V184M256 184h8v8H256V184M272 184h8v8H272V184M280 184h8v8H280V184M296 184h8v8H296V184M104 192h8v8H104V192M120 192h8v8H120V192M128 192h8v8H128V192M176 192h8v8H176V192M184 192h8v8H184V192M200 192h8v8H200V192M208 192h8v8H208V192M224 192h8v8H224V192M240 192h8v8H240V192M264 192h8v8H264V192M272 192h8v8H272V192M280 192h8v8H280V192M40 200h8v8H40V200M72 200h8v8H72V200M88 200h8v8H88V200M104 200h8v8H104V200M120 200h8v8H120V200M128 200h8v8H128V200M168 200h8v8H168V200M200 200h8v8H200V200M208 200h8v8H208V200M216 200h8v8H216V200M256 200h8v8H256V200M264 200h8v8H264V200M272 200h8v8H272V200M288 200h8v8H288V200M296 200h8v8H296V200M40 208h8v8H40V208M48 208h8v8H48V208M72 208h8v8H72V208M112 208h8v8H112V208M120 208h8v8H120V208M136 208h8v8H136V208M144 208h8v8H144V208M168 208h8v8H168V208M176 208h8v8H176V208M184 208h8v8H184V208M200 208h8v8H200V208M216 208h8v8H216V208M224 208h8v8H224V208M240 208h8v8H240V208M248 208h8v8H248V208M256 208h8v8H256V208M264 208h8v8H264V208M280 208h8v8H280V208M40 216h8v8H40V216M56 216h8v8H56V216M72 216h8v8H72V216M88 216h8v8H88V216M96 216h8v8H96V216M104 216h8v8H104V216M112 216h8v8H112V216M128 216h8v8H128V216M136 216h8v8H136V216M160 216h8v8H160V216M168 216h8v8H168V216M176 216h8v8H176V216M200 216h8v8H200V216M208 216h8v8H208V216M216 216h8v8H216V216M232 216h8v8H232V216M240 216h8v8H240V216M256 216h8v8H256V216M288 216h8v8H288V216M40 224h8v8H40V224M72 224h8v8H72V224M80 224h8v8H80V224M96 224h8v8H96V224M104 224h8v8H104V224M112 224h8v8H112V224M128 224h8v8H128V224M152 224h8v8H152V224M232 224h8v8H232V224M240 224h8v8H240V224M248 224h8v8H248V224M256 224h8v8H256V224M272 224h8v8H272V224M280 224h8v8H280V224M40 232h8v8H40V232M48 232h8v8H48V232M56 232h8v8H56V232M80 232h8v8H80V232M88 232h8v8H88V232M104 232h8v8H104V232M136 232h8v8H136V232M144 232h8v8H144V232M152 232h8v8H152V232M160 232h8v8H160V232M168 232h8v8H168V232M176 232h8v8H176V232M192 232h8v8H192V232M200 232h8v8H200V232M224 232h8v8H224V232M232 232h8v8H232V232M240 232h8v8H240V232M248 232h8v8H248V232M256 232h8v8H256V232M264 232h8v8H264V232M280 232h8v8H280V232M288 232h8v8H288V232M104 240h8v8H104V240M120 240h8v8H120V240M144 240h8v8H144V240M152 240h8v8H152V240M160 240h8v8H160V240M168 240h8v8H168V240M184 240h8v8H184V240M192 240h8v8H192V240M200 240h8v8H200V240M216 240h8v8H216V240M224 240h8v8H224V240M232 240h8v8H232V240M264 240h8v8H264V240M280 240h8v8H280V240M296 240h8v8H296V240M40 248h8v8H40V248M48 248h8v8H48V248M56 248h8v8H56V248M64 248h8v8H64V248M72 248h8v8H72V248M80 248h8v8H80V248M88 248h8v8H88V248M112 248h8v8H112V248M136 248h8v8H136V248M160 248h8v8H160V248M184 248h8v8H184V248M208 248h8v8H208V248M224 248h8v8H224V248M232 248h8v8H232V248M248 248h8v8H248V248M264 248h8v8H264V248M280 248h8v8H280V248M288 248h8v8H288V248M40 256h8v8H40V256M88 256h8v8H88V256M112 256h8v8H112V256M120 256h8v8H120V256M144 256h8v8H144V256M152 256h8v8H152V256M160 256h8v8H160V256M192 256h8v8H192V256M200 256h8v8H200V256M224 256h8v8H224V256M232 256h8v8H232V256M264 256h8v8H264V256M272 256h8v8H272V256M280 256h8v8H280V256M288 256h8v8H288V256M296 256h8v8H296V256M40 264h8v8H40V264M56 264h8v8H56V264M64 264h8v8H64V264M72 264h8v8H72V264M88 264h8v8H88V264M120 264h8v8H120V264M160 264h8v8H160V264M184 264h8v8H184V264M208 264h8v8H208V264M232 264h8v8H232V264M240 264h8v8H240V264M248 264h8v8H248V264M256 264h8v8H256V264M264 264h8v8H264V264M272 264h8v8H272V264M288 264h8v8H288V264M40 272h8v8H40V272M56 272h8v8H56V272M64 272h8v8H64V272M72 272h8v8H72V272M88 272h8v8H88V272M128 272h8v8H128V272M144 272h8v8H144V272M152 272h8v8H152V272M168 272h8v8H168V272M200 272h8v8H200V272M216 272h8v8H216V272M224 272h8v8H224V272M240 272h8v8H240V272M256 272h8v8H256V272M264 272h8v8H264V272M272 272h8v8H272V272M296 272h8v8H296V272M40 280h8v8H40V280M56 280h8v8H56V280M64 280h8v8H64V280M72 280h8v8H72V280M88 280h8v8H88V280M112 280h8v8H112V280M120 280h8v8H120V280M136 280h8v8H136V280M144 280h8v8H144V280M152 280h8v8H152V280M168 280h8v8H168V280M176 280h8v8H176V280M184 280h8v8H184V280M200 280h8v8H200V280M208 280h8v8H208V280M232 280h8v8H232V280M256 280h8v8H256V280M264 280h8v8H264V280M288 280h8v8H288V280M296 280h8v8H296V280M40 288h8v8H40V288M88 288h8v8H88V288M120 288h8v8H120V288M144 288h8v8H144V288M152 288h8v8H152V288M160 288h8v8H160V288M168 288h8v8H168V288M184 288h8v8H184V288M192 288h8v8H192V288M200 288h8v8H200V288M216 288h8v8H216V288M224 288h8v8H224V288M232 288h8v8H232V288M256 288h8v8H256V288M264 288h8v8H264V288M272 288h8v8H272V288M280 288h8v8H280V288M40 296h8v8H40V296M48 296h8v8H48V296M56 296h8v8H56V296M64 296h8v8H64V296M72 296h8v8H72V296M80 296h8v8H80V296M88 296h8v8H88V296M104 296h8v8H104V296M120 296h8v8H120V296M136 296h8v8H136V296M152 296h8v8H152V296M176 296h8v8H176V296M192 296h8v8H192V296M216 296h8v8H216V296M232 296h8v8H232V296M256 296h8v8H256V296M272 296h8v8H272V296M288 296h8v8H288V296"/></svg>