<?xml version="1.0" standalone="yes"?><svg xmlns="http://www.w3.org/2000/svg" version="1.1" width="312" height="312" viewBox="0 0 312 312" shape-rendering="crispEdges"><rect x="0" y="0" width="312" height="312" fill="white"/><path fill="black" d="M40 40h8v8H40V40M48 40h8v8H48V40M56 40h8v8H56V40M64 40h8v8H64V40M72 40h8v8H72V40M80 40h8v8H80V40M88 40h8v8H88V40M136 40h8v8H136V40M152 40h8v8H152V40M160 40h8v8H160V40M176 40h8v8H176V40M184 40h8v8H184V40M192 40h8v8H192V40M200 40h8v8H200V40M216 40h8v8H216V40M224 40h8v8H224V40M232 40h8v8H232V40M240 40h8v8H240V40M248 40h8v8H248V40M256 40h8v8H256V40M264 40h8v8H264V40M40 48h8v8H40V48M88 48h8v8H88V48M104 48h8v8H104V48M120 48h8v8H120V48M128 48h8v8H128V48M144 48h8v8H144V48M152 48h8v8H152V48M160 48h8v8H160V48M184 48h8v8H184V48M192 48h8v8H192V48M200 48h8v8H200V48M216 48h8v8H216V48M264 48h8v8H264V48M40 56h8v8H40V56M56 56h8v8H56V56M64 56h8v8H64V56M72 56h8v8H72V56M88 56h8v8H88V56M128 56h8v8H128V56M216 56h8v8H216V56M232 56h8v8H232V56M240 56h8v8H240V56M248 56h8v8H248V56M264 56h8v8H264V56M40 64h8v8H40V64M56 64h8v8H56V64M64 64h8v8H64V64M72 64h8v8H72V64M88 64h8v8H88V64M120 64h8v8H120V64M152 64h8v8H152V64M160 64h8v8H160V64M168 64h8v8H168V64M176 64h8v8H176V64M184 64h8v8H184V64M216 64h8v8H216V64M232 64h8v8H232V64M240 64h8v8H240V64M248 64h8v8H248V64M264 64h8v8H264V64M40 72h8v8H40V72M56 72h8v8H56V72M64 72h8v8H64V72M72 72h8v8H72V72M88 72h8v8H88V72M104 72h8v8H104V72M120 72h8v8H120V72M136 72h8v8H136V72M152 72h8v8H152V72M160 72h8v8H160V72M184 72h8v8H184V72M192 72h8v8H192V72M216 72h8v8H216V72M232 72h8v8H232V72M240 72h8v8H240V72M248 72h8v8H248V72M264 72h8v8H264V72M40 80h8v8H40V80M88 80h8v8H88V80M112 80h8v8H112V80M120 80h8v8H120V80M128 80h8v8H128V80M144 80h8v8H144V80M160 80h8v8H160V80M168 80h8v8H168V80M176 80h8v8H176V80M192 80h8v8H192V80M200 80h8v8H200V80M216 80h8v8H216V80M264 80h8v8H264V80M40 88h8v8H40V88M48 88h8v8H48V88M56 88h8v8H56V88M64 88h8v8H64V88M72 88h8v8H72V88M80 88h8v8H80V88M88 88h8v8H88V88M104 88h8v8H104V88M120 88h8v8H120V88M136 88h8v8H136V88M152 88h8v8H152V88M168 88h8v8H168V88M184 88h8v8H184V88M200 88h8v8H200V88M216 88h8v8H216V88M224 88h8v8H224V88M232 88h8v8H232V88M240 88h8v8H240V88M248 88h8v8H248V88M256 88h8v8H256V88M264 88h8v8H264V88M120 96h8v8H120V96M128 96h8v8H128V96M136 96h8v8H136V96M144 96h8v8H144V96M152 96h8v8H152V96M168 96h8v8H168V96M176 96h8v8H176V96M200 96h8v8H200V96M40 104h8v8H40V104M56 104h8v8H56V104M72 104h8v8H72V104M88 104h8v8H88V104M120 104h8v8H120V104M144 104h8v8H144V104M160 104h8v8H160V104M176 104h8v8H176V104M192 104h8v8H192V104M200 104h8v8H200V104M232 104h8v8H232V104M256 104h8v8H256V104M40 112h8v8H40V112M48 112h8v8H48V112M56 112h8v8H56V112M64 112h8v8H64V112M72 112h8v8H72V112M80 112h8v8H80V112M96 112h8v8H96V112M104 112h8v8H104V112M112 112h8v8H112V112M120 112h8v8H120V112M128 112h8v8H128V112M136 112h8v8H136V112M160 112h8v8H160V112M168 112h8v8H168V112M176 112h8v8H176V112M200 112h8v8H200V112M216 112h8v8H216V112M240 112h8v8H240V112M264 112h8v8H264V112M40 120h8v8H40V120M72 120h8v8H72V120M88 120h8v8H88V120M104 120h8v8H104V120M128 120h8v8H128V120M168 120h8v8H168V120M176 120h8v8H176V120M208 120h8v8H208V120M216 120h8v8H216V120M248 120h8v8H248V120M256 120h8v8H256V120M264 120h8v8H264V120M48 128h8v8H48V128M56 128h8v8H56V128M96 128h8v8H96V128M104 128h8v8H104V128M112 128h8v8H112V128M144 128h8v8H144V128M152 128h8v8H152V128M176 128h8v8H176V128M208 128h8v8H208V128M232 128h8v8H232V128M256 128h8v8H256V128M40 136h8v8H40V136M64 136h8v8H64V136M72 136h8v8H72V136M80 136h8v8H80V136M88 136h8v8H88V136M96 136h8v8H96V136M104 136h8v8H104V136M136 136h8v8H136V136M152 136h8v8H152V136M176 136h8v8H176V136M200 136h8v8H200V136M208 136h8v8H208V136M216 136h8v8H216V136M240 136h8v8H240V136M256 136h8v8H256V136M264 136h8v8H264V136M104 144h8v8H104V144M112 144h8v8H112V144M136 144h8v8H136V144M168 144h8v8H168V144M200 144h8v8H200V144M208 144h8v8H208V144M216 144h8v8H216V144M224 144h8v8H224V144M240 144h8v8H240V144M264 144h8v8H264V144M48 152h8v8H48V152M56 152h8v8H56V152M64 152h8v8H64V152M72 152h8v8H72V152M88 152h8v8H88V152M96 152h8v8H96V152M104 152h8v8H104V152M120 152h8v8H120V152M128 152h8v8H128V152M136 152h8v8H136V152M144 152h8v8H144V152M184 152h8v8H184V152M200 152h8v8H200V152M224 152h8v8H224V152M240 152h8v8H240V152M256 152h8v8H256V152M264 152h8v8H264V152M64 160h8v8H64V160M80 160h8v8H80V160M96 160h8v8H96V160M112 160h8v8H112V160M120 160h8v8H120V160M128 160h8v8H128V160M136 160h8v8H136V160M160 160h8v8H160V160M168 160h8v8H168V160M176 160h8v8H176V160M184 160h8v8H184V160M200 160h8v8H200V160M240 160h8v8H240V160M256 160h8v8H256V160M40 168h8v8H40V168M80 168h8v8H80V168M88 168h8v8H88V168M96 168h8v8H96V168M104 168h8v8H104V168M120 168h8v8H120V168M128 168h8v8H128V168M168 168h8v8H168V168M176 168h8v8H176V168M192 168h8v8H192V168M200 168h8v8H200V168M208 168h8v8H208V168M216 168h8v8H216V168M224 168h8v8H224V168M240 168h8v8H240V168M256 168h8v8H256V168M264 168h8v8H264V168M48 176h8v8H48V176M56 176h8v8H56V176M72 176h8v8H72V176M80 176h8v8H80V176M96 176h8v8H96V176M120 176h8v8H120V176M144 176h8v8H144V176M168 176h8v8H168V176M176 176h8v8H176V176M184 176h8v8H184V176M208 176h8v8H208V176M216 176h8v8H216V176M240 176h8v8H240V176M248 176h8v8H248V176M264 176h8v8H264V176M40 184h8v8H40V184M64 184h8v8H64V184M72 184h8v8H72V184M80 184h8v8H80V184M88 184h8v8H88V184M96 184h8v8H96V184M112 184h8v8H112V184M128 184h8v8H128V184M152 184h8v8H152V184M168 184h8v8H168V184M176 184h8v8H176V184M184 184h8v8H184V184M224 184h8v8H224V184M256 184h8v8H256V184M264 184h8v8H264V184M48 192h8v8H48V192M64 192h8v8H64V192M96 192h8v8H96V192M112 192h8v8H112V192M144 192h8v8H144V192M152 192h8v8H152V192M160 192h8v8H160V192M176 192h8v8H176V192M216 192h8v8H216V192M240 192h8v8H240V192M256 192h8v8H256V192M40 200h8v8H40V200M80 200h8v8H80V200M88 200h8v8H88V200M96 200h8v8H96V200M104 200h8v8H104V200M128 200h8v8H128V200M136 200h8v8H136V200M152 200h8v8H152V200M176 200h8v8H176V200M192 200h8v8H192V200M200 200h8v8H200V200M208 200h8v8H208V200M216 200h8v8H216V200M224 200h8v8H224V200M232 200h8v8H232V200M104 208h8v8H104V208M120 208h8v8H120V208M128 208h8v8H128V208M152 208h8v8H152V208M168 208h8v8H168V208M176 208h8v8H176V208M192 208h8v8H192V208M200 208h8v8H200V208M232 208h8v8H232V208M248 208h8v8H248V208M256 208h8v8H256V208M264 208h8v8H264V208M40 216h8v8H40V216M48 216h8v8H48V216M56 216h8v8H56V216M64 216h8v8H64V216M72 216h8v8H72V216M80 216h8v8H80V216M88 216h8v8H88V216M120 216h8v8H120V216M128 216h8v8H128V216M136 216h8v8H136V216M144 216h8v8H144V216M168 216h8v8H168V216M192 216h8v8H192V216M200 216h8v8H200V216M216 216h8v8H216V216M232 216h8v8H232V216M240 216h8v8H240V216M256 216h8v8H256V216M264 216h8v8H264V216M40 224h8v8H40V224M88 224h8v8H88V224M112 224h8v8H112V224M120 224h8v8H120V224M128 224h8v8H128V224M160 224h8v8H160V224M168 224h8v8H168V224M176 224h8v8H176V224M184 224h8v8H184V224M200 224h8v8H200V224M232 224h8v8H232V224M240 224h8v8H240V224M264 224h8v8H264V224M40 232h8v8H40V232M56 232h8v8H56V232M64 232h8v8H64V232M72 232h8v8H72V232M88 232h8v8H88V232M104 232h8v8H104V232M120 232h8v8H120V232M136 232h8v8H136V232M160 232h8v8H160V232M168 232h8v8H168V232M176 232h8v8H176V232M200 232h8v8H200V232M208 232h8v8H208V232M216 232h8v8H216V232M224 232h8v8H224V232M232 232h8v8H232V232M256 232h8v8H256V232M264 232h8v8H264V232M40 240h8v8H40V240M56 240h8v8H56V240M64 240h8v8H64V240M72 240h8v8H72V240M88 240h8v8H88V240M120 240h8v8H120V240M128 240h8v8H128V240M144 240h8v8H144V240M168 240h8v8H168V240M200 240h8v8H200V240M232 240h8v8H232V240M248 240h8v8H248V240M256 240h8v8H256V240M264 240h8v8H264V240M40 248h8v8H40V248M56 248h8v8H56V248M64 248h8v8H64V248M72 248h8v8H72V248M88 248h8v8H88V248M104 248h8v8H104V248M112 248h8v8H112V248M144 248h8v8H144V248M184 248h8v8H184V248M192 248h8v8H192V248M208 248h8v8H208V248M224 248h8v8H224V248M232 248h8v8H232V248M240 248h8v8H240V248M264 248h8v8H264V248M40 256h8v8H40V256M88 256h8v8H88V256M112 256h8v8H112V256M120 256h8v8H120V256M136 256h8v8H136V256M160 256h8v8H160V256M168 256h8v8H168V256M176 256h8v8H176V256M192 256h8v8H192V256M200 256h8v8H200V256M232 256h8v8H232V256M256 256h8v8H256V256M40 264h8v8H40V264M48 264h8v8H48V264M56 264h8v8H56V264M64 264h8v8H64V264M72 264h8v8H72V264M80 264h8v8H80V264M88 264h8v8H88V264M104 264h8v8H104V264M128 264h8v8H128V264M136 264h8v8H136V264M152 264h8v8H152V264M168 264h8v8H168V264M176 264h8v8H176V264M192 264h8v8H192V264M200 264h8v8H200V264M216 264h8v8H216V264M224 264h8v8H224V264M232 264h8v8H232V264M240 264h8v8H240V264M256 264h8v8H256V264M264 264h8v8H264V264"/></svg>